<svg xmlns="http://www.w3.org/2000/svg" viewBox="0 0 123.3 21.57"><g data-name="Слой 2"><path d="M4.26 20.34H0V.33h4.26zm13.44.36a10.21 10.21 0 01-7.49-2.93 10 10 0 01-3-7.42 10 10 0 013-7.43A10.21 10.21 0 0117.7 0a10.25 10.25 0 017.51 2.91 10 10 0 013 7.44 10.09 10.09 0 01-2.61 7.08l1.4 1.71-3 2.43-1.62-1.86a11.51 11.51 0 01-4.68.99zm0-3.78a7 7 0 002.1-.33L17.61 14l2.94-2.43 2.22 2.61a7.25 7.25 0 001-3.84 6.76 6.76 0 00-1.68-4.71 5.66 5.66 0 00-4.39-1.85 5.62 5.62 0 00-4.4 1.86 6.79 6.79 0 00-1.66 4.71 6.79 6.79 0 001.66 4.71 5.62 5.62 0 004.4 1.86zm22.95 3.78a10.21 10.21 0 01-7.49-2.93 10 10 0 01-2.95-7.42 10 10 0 012.95-7.43A10.21 10.21 0 0140.65 0a10.25 10.25 0 017.51 2.91 10 10 0 013 7.44 10 10 0 01-3 7.44 10.25 10.25 0 01-7.51 2.91zm-4.4-5.64a5.62 5.62 0 004.4 1.86 5.66 5.66 0 004.41-1.86 6.76 6.76 0 001.68-4.71 6.76 6.76 0 00-1.68-4.71 5.66 5.66 0 00-4.41-1.86 5.62 5.62 0 00-4.4 1.86 6.79 6.79 0 00-1.66 4.71 6.79 6.79 0 001.66 4.71zm24.98 5.64a11.31 11.31 0 01-8.46-3.18l2.31-3.24A8.45 8.45 0 0061.44 17a4.31 4.31 0 002.56-.67 1.88 1.88 0 00.92-1.57 1.58 1.58 0 00-.86-1.35 6.07 6.07 0 00-2.13-.78 27.23 27.23 0 01-2.77-.69 23.06 23.06 0 01-2.78-1 5.05 5.05 0 01-3-4.8 5.49 5.49 0 012.07-4.34A8.25 8.25 0 0161 0a11.06 11.06 0 017.8 2.79l-2.38 3.15a8.26 8.26 0 00-5.82-2.19 3.54 3.54 0 00-2.1.54 1.72 1.72 0 00-.75 1.47A1.4 1.4 0 0058.6 7a6.73 6.73 0 002.13.74 22.52 22.52 0 012.76.71 23.35 23.35 0 012.76 1 5.26 5.26 0 012.13 1.83 5.18 5.18 0 01.86 3 5.84 5.84 0 01-2.06 4.65 8.86 8.86 0 01-5.95 1.77zm14.46-.7a2.42 2.42 0 11-3.42-3.42A2.42 2.42 0 1175.69 20zm8.37.34H79.8V.33H94v3.75h-9.9v4.23h9.69v3.75h-9.73zm17.13 0h-4.26V.33h4.26zm22.11 0h-5.1l-5-7.32-5 7.32h-5.07l7.26-10.26-6.86-9.75h5.07l4.59 6.84 4.53-6.84h5.13L116 10.05z" fill="#ddad7f" data-name="Слой 1"/></g></svg>